<svg id="svg" version="1.1" xmlns="http://www.w3.org/2000/svg" xmlns:xlink="http://www.w3.org/1999/xlink" width="650" height="500" viewBox="60, 100, 280,200"><g id="svgg"><path id="path0" d="M272.910 102.066 C 269.329 105.655,266.026 108.820,265.388 109.273 C 264.762 109.718,264.089 110.221,263.892 110.390 C 263.695 110.559,262.982 111.065,262.308 111.515 C 261.272 112.206,256.602 115.471,256.083 115.867 C 255.992 115.937,255.279 116.422,254.500 116.946 C 253.721 117.469,252.446 118.378,251.667 118.967 C 250.887 119.556,250.079 120.103,249.869 120.184 C 249.659 120.264,248.984 120.656,248.369 121.055 C 247.754 121.454,246.688 122.104,246.000 122.500 C 245.313 122.896,244.436 123.433,244.053 123.693 C 243.670 123.954,243.274 124.167,243.174 124.167 C 243.073 124.167,242.299 124.589,241.454 125.105 C 238.661 126.809,237.428 127.541,236.500 128.042 C 235.555 128.553,233.251 129.913,230.917 131.340 C 230.183 131.788,229.496 132.157,229.389 132.161 C 229.282 132.164,227.632 132.923,225.723 133.848 C 223.813 134.773,221.650 135.775,220.917 136.075 C 220.183 136.374,217.971 137.390,216.000 138.333 C 214.029 139.275,212.229 140.103,212.000 140.172 C 211.771 140.242,210.853 140.642,209.960 141.060 L 208.336 141.821 208.293 133.587 L 208.250 125.353 206.250 126.617 C 205.150 127.313,203.912 128.069,203.500 128.298 C 203.088 128.528,201.700 129.406,200.417 130.250 C 199.133 131.094,197.821 131.916,197.500 132.077 C 196.150 132.753,190.593 137.167,188.000 139.624 C 187.771 139.841,186.758 140.706,185.750 141.546 C 184.742 142.386,179.017 147.969,173.028 153.953 C 167.040 159.937,162.078 164.833,162.003 164.833 C 161.927 164.833,159.674 162.644,156.995 159.969 C 152.420 155.401,152.110 155.125,151.888 155.428 C 151.758 155.605,151.193 156.650,150.633 157.750 C 150.073 158.850,149.289 160.340,148.891 161.062 C 148.492 161.784,148.167 162.448,148.167 162.540 C 148.167 162.631,147.834 163.205,147.428 163.816 C 146.625 165.024,143.664 170.018,141.339 174.083 C 140.815 175.000,139.808 176.762,139.100 178.000 C 138.393 179.237,137.444 180.875,136.991 181.639 C 136.537 182.403,136.167 183.093,136.167 183.171 C 136.167 183.250,135.878 183.787,135.526 184.365 C 133.578 187.560,132.166 190.006,132.157 190.198 C 132.152 190.318,131.811 190.942,131.399 191.583 C 130.988 192.225,130.423 193.237,130.143 193.833 C 129.864 194.429,129.305 195.614,128.901 196.467 C 128.497 197.319,128.167 198.120,128.167 198.247 C 128.167 198.374,127.800 199.251,127.351 200.197 C 125.283 204.560,124.167 207.038,124.167 207.266 C 124.167 207.402,124.015 207.810,123.830 208.173 C 123.645 208.536,123.541 208.833,123.600 208.833 C 123.659 208.833,123.636 208.927,123.549 209.042 C 123.461 209.156,123.219 209.737,123.010 210.333 C 122.801 210.929,122.529 211.642,122.406 211.917 C 121.990 212.849,120.448 217.078,120.158 218.083 C 120.000 218.633,119.405 220.283,118.837 221.750 C 117.052 226.355,117.093 226.163,116.600 232.083 C 116.355 235.017,116.006 239.179,115.823 241.333 C 115.415 246.161,115.323 264.726,115.708 264.574 C 115.936 264.483,119.385 259.972,120.352 258.500 C 122.441 255.319,123.699 253.281,124.079 252.461 C 124.516 251.519,125.708 249.750,126.877 248.307 C 127.497 247.542,128.507 246.279,129.120 245.500 C 129.734 244.721,130.319 244.008,130.421 243.917 C 130.777 243.596,132.000 242.036,132.007 241.894 C 132.011 241.815,132.350 241.338,132.761 240.833 C 134.042 239.258,136.000 236.688,136.000 236.580 C 136.000 236.293,137.524 234.730,138.574 233.940 C 139.230 233.446,140.023 232.808,140.337 232.521 C 140.651 232.235,140.978 232.000,141.064 232.000 C 141.538 232.000,144.143 229.670,148.425 225.416 C 151.078 222.780,153.662 220.343,154.166 220.000 C 154.671 219.658,155.383 219.085,155.750 218.727 C 156.510 217.986,158.116 216.628,159.047 215.941 C 159.393 215.685,159.805 215.344,159.963 215.183 C 160.670 214.462,162.460 213.111,164.919 211.442 C 166.385 210.447,167.953 209.346,168.406 208.994 C 168.858 208.642,169.533 208.197,169.906 208.005 C 170.278 207.813,171.221 207.184,172.000 206.608 C 172.779 206.032,174.818 204.615,176.531 203.459 C 178.244 202.304,180.032 201.053,180.504 200.679 C 180.977 200.306,181.441 200.000,181.535 200.000 C 181.692 200.000,183.803 198.574,184.000 198.336 C 184.079 198.240,186.952 196.270,187.527 195.917 C 188.556 195.286,191.932 193.094,192.000 193.013 C 192.177 192.802,193.502 192.000,193.674 192.000 C 193.773 192.000,194.806 191.373,195.969 190.607 C 198.290 189.077,199.979 188.000,200.057 188.000 C 200.118 188.000,203.300 186.082,204.319 185.431 C 204.724 185.173,205.661 184.643,206.403 184.254 C 207.841 183.499,211.157 181.594,212.667 180.654 C 213.171 180.340,213.850 179.948,214.176 179.783 C 214.501 179.618,215.176 179.173,215.676 178.793 C 217.490 177.416,223.950 173.281,225.250 172.666 C 226.948 171.862,227.833 171.487,227.833 171.572 C 227.833 171.609,227.552 171.808,227.208 172.015 C 226.574 172.396,224.388 174.081,224.083 174.425 C 223.992 174.528,223.429 174.981,222.833 175.431 C 222.237 175.882,221.725 176.307,221.694 176.376 C 221.663 176.445,221.583 176.468,221.516 176.427 C 221.449 176.385,220.923 176.762,220.348 177.264 C 219.772 177.765,218.690 178.638,217.942 179.204 C 215.039 181.398,212.403 183.479,212.099 183.815 C 211.925 184.008,211.710 184.167,211.623 184.167 C 211.469 184.167,208.836 186.166,208.332 186.666 C 207.824 187.170,206.545 188.167,206.400 188.172 C 206.317 188.175,205.800 188.550,205.250 189.005 C 204.376 189.729,202.918 190.875,200.583 192.673 C 197.517 195.035,195.833 196.400,195.833 196.522 C 195.833 196.601,195.770 196.648,195.693 196.625 C 195.615 196.602,194.787 197.183,193.853 197.917 C 191.700 199.606,191.091 200.073,189.833 200.997 C 189.274 201.408,188.614 201.937,188.367 202.172 C 188.119 202.407,187.429 202.971,186.833 203.425 C 186.237 203.879,185.725 204.307,185.694 204.376 C 185.663 204.445,185.583 204.468,185.516 204.427 C 185.449 204.385,184.923 204.762,184.348 205.264 C 183.772 205.765,182.690 206.638,181.942 207.204 C 179.039 209.398,176.403 211.479,176.099 211.815 C 175.925 212.008,175.710 212.167,175.623 212.167 C 175.469 212.167,172.836 214.166,172.332 214.666 C 171.786 215.208,170.540 216.167,170.382 216.167 C 170.290 216.167,169.398 216.959,168.399 217.927 C 167.400 218.895,166.321 219.865,166.000 220.082 C 165.679 220.300,164.554 221.308,163.500 222.322 C 162.446 223.337,161.517 224.167,161.437 224.167 C 161.356 224.167,160.889 224.571,160.399 225.065 C 159.909 225.559,158.925 226.477,158.212 227.106 C 155.052 229.893,153.167 231.722,151.536 233.583 C 150.572 234.683,149.476 235.889,149.100 236.263 C 148.724 236.636,148.068 237.386,147.642 237.929 C 147.216 238.472,146.387 239.404,145.799 240.000 C 145.210 240.596,144.346 241.571,143.878 242.167 C 143.410 242.762,142.640 243.625,142.167 244.083 C 141.694 244.542,140.921 245.404,140.451 246.000 C 139.980 246.596,138.925 247.796,138.108 248.667 C 137.290 249.537,136.504 250.438,136.360 250.667 C 136.216 250.896,135.569 251.646,134.922 252.333 C 134.275 253.021,133.355 254.071,132.877 254.667 C 132.399 255.262,131.898 255.862,131.764 256.000 C 128.703 259.127,123.099 269.502,121.006 275.917 C 120.527 277.383,119.842 279.483,119.482 280.583 L 118.828 282.583 118.831 287.614 L 118.833 292.645 120.424 295.944 C 121.953 299.117,122.497 300.000,122.922 300.000 C 123.031 300.000,123.449 300.288,123.852 300.640 C 124.885 301.544,128.655 304.333,128.843 304.333 C 128.934 304.333,129.000 303.312,129.000 301.914 L 129.000 299.494 129.893 297.706 C 130.711 296.065,131.821 293.029,132.085 291.708 L 132.193 291.167 145.517 291.167 L 158.841 291.167 163.629 290.578 C 166.262 290.254,170.235 289.767,172.458 289.495 C 174.681 289.223,178.331 288.775,180.568 288.500 C 182.806 288.225,185.047 288.000,185.548 288.000 C 186.193 288.000,187.890 287.589,191.355 286.595 C 196.834 285.022,199.627 284.247,202.083 283.618 C 203.757 283.190,205.036 282.827,210.945 281.107 C 212.702 280.595,214.652 280.069,215.278 279.938 C 215.904 279.806,217.092 279.400,217.917 279.034 C 221.326 277.524,223.609 276.483,224.026 276.249 C 224.269 276.112,224.578 276.000,224.713 276.000 C 224.980 276.000,225.862 275.625,228.385 274.436 C 229.284 274.013,230.053 273.667,230.094 273.667 C 230.134 273.667,230.955 273.292,231.917 272.833 C 232.879 272.375,233.775 272.000,233.908 272.000 C 234.041 272.000,234.945 271.625,235.917 271.167 C 236.888 270.708,237.720 270.333,237.765 270.333 C 237.809 270.333,238.612 269.973,239.548 269.532 C 240.484 269.091,241.680 268.547,242.205 268.324 C 243.471 267.785,243.523 267.836,240.689 266.846 L 238.211 265.981 235.898 263.660 C 234.626 262.383,233.567 261.281,233.546 261.211 C 233.511 261.097,235.047 260.000,235.240 260.000 C 235.343 260.000,239.389 257.242,240.304 256.547 C 240.701 256.246,241.098 256.000,241.187 256.000 C 241.349 256.000,243.844 254.373,244.000 254.166 C 244.121 254.006,247.135 252.000,247.255 252.000 C 247.311 252.000,247.670 251.788,248.053 251.529 C 248.436 251.270,249.463 250.655,250.333 250.162 C 251.204 249.669,252.005 249.179,252.114 249.072 C 252.223 248.966,252.973 248.558,253.781 248.165 C 254.589 247.772,255.550 247.249,255.917 247.002 C 256.283 246.756,257.333 246.132,258.250 245.616 C 259.167 245.099,260.011 244.525,260.126 244.338 C 260.242 244.152,260.417 244.000,260.515 244.000 C 260.706 244.000,263.757 241.382,264.573 240.518 C 264.842 240.233,265.134 240.000,265.221 240.000 C 265.400 240.000,267.161 238.495,268.417 237.270 C 268.875 236.822,269.531 236.278,269.875 236.059 C 271.032 235.324,283.208 223.000,282.777 223.000 C 282.745 223.000,280.874 222.362,278.617 221.583 C 276.361 220.804,274.418 220.167,274.301 220.167 C 274.183 220.167,272.750 219.705,271.117 219.140 L 268.148 218.114 268.907 217.343 L 269.667 216.572 269.665 214.911 C 269.663 213.280,269.683 213.192,270.813 210.000 C 271.445 208.213,272.077 206.375,272.216 205.917 C 272.356 205.458,272.930 203.846,273.492 202.333 C 274.485 199.663,275.637 196.378,276.357 194.167 C 276.551 193.571,276.923 192.521,277.183 191.833 C 279.397 185.989,280.005 183.989,279.997 182.583 C 279.995 182.308,280.890 176.833,281.985 170.417 C 283.081 164.000,284.075 158.112,284.195 157.333 C 284.359 156.265,284.426 152.064,284.468 140.250 C 284.531 122.697,284.617 124.329,283.219 116.417 C 281.998 109.503,281.902 108.969,281.083 104.583 C 280.656 102.292,280.232 99.892,280.143 99.250 C 279.736 96.329,279.609 95.667,279.456 95.667 C 279.367 95.667,276.421 98.546,272.910 102.066 " stroke="none" fill="#24ac9c" fill-rule="evenodd"></path><path id="path1" d="" stroke="none" fill="#2cac9c" fill-rule="evenodd"></path><path id="path2" d="" stroke="none" fill="#28ac9c" fill-rule="evenodd"></path><path id="path3" d="" stroke="none" fill="#28ac9c" fill-rule="evenodd"></path><path id="path4" d="" stroke="none" fill="#28ac9c" fill-rule="evenodd"></path></g></svg>